<mxfile host="app.diagrams.net" modified="2023-03-26T17:42:19.318Z" agent="Mozilla/5.0 (X11; Linux x86_64) AppleWebKit/537.36 (KHTML, like Gecko) Chrome/111.0.0.0 Safari/537.36" etag="EF25TV4_SuNhpHVyrN3x" version="21.1.1" type="device">
  <diagram name="Page-1" id="fbk-Ai4V8geW5xDnI99I">
    <mxGraphModel dx="1946" dy="1107" grid="1" gridSize="10" guides="1" tooltips="1" connect="1" arrows="1" fold="1" page="1" pageScale="1" pageWidth="827" pageHeight="1169" math="0" shadow="0">
      <root>
        <mxCell id="0" />
        <mxCell id="1" parent="0" />
        <mxCell id="EA6ZVJ3KCZsDqWAnBXEh-10" value="" style="ellipse;html=1;shape=startState;fillColor=#000000;strokeColor=#ff0000;fontSize=23;" parent="1" vertex="1">
          <mxGeometry x="76" y="20" width="30" height="30" as="geometry" />
        </mxCell>
        <mxCell id="EA6ZVJ3KCZsDqWAnBXEh-11" value="" style="edgeStyle=orthogonalEdgeStyle;html=1;verticalAlign=bottom;endArrow=open;endSize=8;strokeColor=#ff0000;rounded=0;fontSize=23;" parent="1" source="EA6ZVJ3KCZsDqWAnBXEh-10" edge="1">
          <mxGeometry relative="1" as="geometry">
            <mxPoint x="91" y="90" as="targetPoint" />
          </mxGeometry>
        </mxCell>
        <mxCell id="LYHglm9Zj9HGhGP9bmGm-2" value="" style="edgeStyle=orthogonalEdgeStyle;rounded=0;orthogonalLoop=1;jettySize=auto;html=1;fontSize=14;" parent="1" source="EA6ZVJ3KCZsDqWAnBXEh-12" target="LYHglm9Zj9HGhGP9bmGm-1" edge="1">
          <mxGeometry relative="1" as="geometry" />
        </mxCell>
        <mxCell id="EA6ZVJ3KCZsDqWAnBXEh-12" value="&lt;span style=&quot;font-size: 12px;&quot;&gt;Sign In&lt;/span&gt;" style="html=1;fontSize=23;rounded=1;" parent="1" vertex="1">
          <mxGeometry x="36" y="90" width="110" height="50" as="geometry" />
        </mxCell>
        <mxCell id="EA6ZVJ3KCZsDqWAnBXEh-41" value="" style="edgeStyle=orthogonalEdgeStyle;rounded=0;orthogonalLoop=1;jettySize=auto;html=1;fontSize=12;" parent="1" source="EA6ZVJ3KCZsDqWAnBXEh-34" target="EA6ZVJ3KCZsDqWAnBXEh-40" edge="1">
          <mxGeometry relative="1" as="geometry" />
        </mxCell>
        <mxCell id="EA6ZVJ3KCZsDqWAnBXEh-34" value="&lt;span style=&quot;font-size: 12px;&quot;&gt;Sign Out&lt;/span&gt;" style="html=1;fontSize=23;rounded=1;" parent="1" vertex="1">
          <mxGeometry x="644" y="1040" width="110" height="50" as="geometry" />
        </mxCell>
        <mxCell id="EA6ZVJ3KCZsDqWAnBXEh-40" value="" style="ellipse;html=1;shape=endState;fillColor=#000000;strokeColor=#ff0000;fontSize=12;" parent="1" vertex="1">
          <mxGeometry x="684" y="1120" width="30" height="30" as="geometry" />
        </mxCell>
        <mxCell id="LYHglm9Zj9HGhGP9bmGm-11" style="edgeStyle=orthogonalEdgeStyle;rounded=0;orthogonalLoop=1;jettySize=auto;html=1;entryX=0.5;entryY=0;entryDx=0;entryDy=0;fontSize=14;" parent="1" source="LYHglm9Zj9HGhGP9bmGm-1" target="LYHglm9Zj9HGhGP9bmGm-9" edge="1">
          <mxGeometry relative="1" as="geometry" />
        </mxCell>
        <mxCell id="0wsUlRYZToiHvtdYw5um-4" value="" style="edgeStyle=orthogonalEdgeStyle;rounded=0;orthogonalLoop=1;jettySize=auto;html=1;" edge="1" parent="1" source="LYHglm9Zj9HGhGP9bmGm-1" target="0wsUlRYZToiHvtdYw5um-3">
          <mxGeometry relative="1" as="geometry" />
        </mxCell>
        <mxCell id="LYHglm9Zj9HGhGP9bmGm-1" value="already&amp;nbsp;&lt;br&gt;have account?" style="rhombus;whiteSpace=wrap;html=1;fontSize=14;" parent="1" vertex="1">
          <mxGeometry x="23" y="180" width="136" height="90" as="geometry" />
        </mxCell>
        <mxCell id="LYHglm9Zj9HGhGP9bmGm-9" value="Home Page" style="rounded=1;whiteSpace=wrap;html=1;fontSize=12;" parent="1" vertex="1">
          <mxGeometry x="31" y="340" width="120" height="40" as="geometry" />
        </mxCell>
        <mxCell id="LYHglm9Zj9HGhGP9bmGm-12" value="yes" style="text;html=1;align=center;verticalAlign=middle;resizable=0;points=[];autosize=1;strokeColor=none;fillColor=none;fontSize=14;" parent="1" vertex="1">
          <mxGeometry x="79" y="280" width="50" height="30" as="geometry" />
        </mxCell>
        <mxCell id="LYHglm9Zj9HGhGP9bmGm-13" value="no" style="text;html=1;align=center;verticalAlign=middle;resizable=0;points=[];autosize=1;strokeColor=none;fillColor=none;fontSize=14;" parent="1" vertex="1">
          <mxGeometry x="161" y="200" width="40" height="30" as="geometry" />
        </mxCell>
        <mxCell id="0wsUlRYZToiHvtdYw5um-21" style="edgeStyle=orthogonalEdgeStyle;rounded=0;orthogonalLoop=1;jettySize=auto;html=1;entryX=0;entryY=0.75;entryDx=0;entryDy=0;" edge="1" parent="1" source="_q1LPZn02avo4OPFZNp6-2" target="0wsUlRYZToiHvtdYw5um-12">
          <mxGeometry relative="1" as="geometry">
            <Array as="points">
              <mxPoint x="141" y="510" />
            </Array>
          </mxGeometry>
        </mxCell>
        <mxCell id="0wsUlRYZToiHvtdYw5um-23" style="edgeStyle=orthogonalEdgeStyle;rounded=0;orthogonalLoop=1;jettySize=auto;html=1;entryX=0;entryY=0.5;entryDx=0;entryDy=0;" edge="1" parent="1" source="_q1LPZn02avo4OPFZNp6-2" target="0wsUlRYZToiHvtdYw5um-13">
          <mxGeometry relative="1" as="geometry">
            <Array as="points">
              <mxPoint x="130" y="580" />
            </Array>
          </mxGeometry>
        </mxCell>
        <mxCell id="0wsUlRYZToiHvtdYw5um-24" style="edgeStyle=orthogonalEdgeStyle;rounded=0;orthogonalLoop=1;jettySize=auto;html=1;entryX=0;entryY=0.5;entryDx=0;entryDy=0;" edge="1" parent="1" source="_q1LPZn02avo4OPFZNp6-2" target="0wsUlRYZToiHvtdYw5um-17">
          <mxGeometry relative="1" as="geometry">
            <Array as="points">
              <mxPoint x="120" y="660" />
            </Array>
          </mxGeometry>
        </mxCell>
        <mxCell id="0wsUlRYZToiHvtdYw5um-25" style="edgeStyle=orthogonalEdgeStyle;rounded=0;orthogonalLoop=1;jettySize=auto;html=1;entryX=0;entryY=0.5;entryDx=0;entryDy=0;" edge="1" parent="1" source="_q1LPZn02avo4OPFZNp6-2" target="0wsUlRYZToiHvtdYw5um-11">
          <mxGeometry relative="1" as="geometry">
            <Array as="points">
              <mxPoint x="110" y="740" />
            </Array>
          </mxGeometry>
        </mxCell>
        <mxCell id="0wsUlRYZToiHvtdYw5um-26" style="edgeStyle=orthogonalEdgeStyle;rounded=0;orthogonalLoop=1;jettySize=auto;html=1;entryX=0;entryY=0.5;entryDx=0;entryDy=0;" edge="1" parent="1" source="_q1LPZn02avo4OPFZNp6-2" target="0wsUlRYZToiHvtdYw5um-16">
          <mxGeometry relative="1" as="geometry">
            <Array as="points">
              <mxPoint x="100" y="820" />
            </Array>
          </mxGeometry>
        </mxCell>
        <mxCell id="0wsUlRYZToiHvtdYw5um-27" style="edgeStyle=orthogonalEdgeStyle;rounded=0;orthogonalLoop=1;jettySize=auto;html=1;entryX=0;entryY=0.5;entryDx=0;entryDy=0;" edge="1" parent="1" source="_q1LPZn02avo4OPFZNp6-2" target="0wsUlRYZToiHvtdYw5um-15">
          <mxGeometry relative="1" as="geometry">
            <Array as="points">
              <mxPoint x="90" y="900" />
            </Array>
          </mxGeometry>
        </mxCell>
        <mxCell id="0wsUlRYZToiHvtdYw5um-28" style="edgeStyle=orthogonalEdgeStyle;rounded=0;orthogonalLoop=1;jettySize=auto;html=1;entryX=0;entryY=0.5;entryDx=0;entryDy=0;" edge="1" parent="1" source="_q1LPZn02avo4OPFZNp6-2" target="0wsUlRYZToiHvtdYw5um-19">
          <mxGeometry relative="1" as="geometry">
            <Array as="points">
              <mxPoint x="80" y="980" />
            </Array>
          </mxGeometry>
        </mxCell>
        <mxCell id="_q1LPZn02avo4OPFZNp6-2" value="" style="line;strokeWidth=3;fillColor=none;align=right;verticalAlign=middle;spacingTop=-1;spacingLeft=3;spacingRight=3;rotatable=0;labelPosition=right;points=[];portConstraint=eastwest;strokeColor=inherit;fontSize=14;" parent="1" vertex="1">
          <mxGeometry x="21" y="417" width="198" height="8" as="geometry" />
        </mxCell>
        <mxCell id="0wsUlRYZToiHvtdYw5um-6" value="" style="edgeStyle=orthogonalEdgeStyle;rounded=0;orthogonalLoop=1;jettySize=auto;html=1;" edge="1" parent="1" source="0wsUlRYZToiHvtdYw5um-3" target="0wsUlRYZToiHvtdYw5um-5">
          <mxGeometry relative="1" as="geometry" />
        </mxCell>
        <mxCell id="0wsUlRYZToiHvtdYw5um-3" value="Sign Up" style="rounded=1;whiteSpace=wrap;html=1;fontSize=12;" vertex="1" parent="1">
          <mxGeometry x="219" y="205" width="120" height="40" as="geometry" />
        </mxCell>
        <mxCell id="0wsUlRYZToiHvtdYw5um-7" style="edgeStyle=orthogonalEdgeStyle;rounded=0;orthogonalLoop=1;jettySize=auto;html=1;entryX=1;entryY=0.5;entryDx=0;entryDy=0;" edge="1" parent="1" source="0wsUlRYZToiHvtdYw5um-5" target="EA6ZVJ3KCZsDqWAnBXEh-12">
          <mxGeometry relative="1" as="geometry">
            <Array as="points">
              <mxPoint x="460" y="115" />
            </Array>
          </mxGeometry>
        </mxCell>
        <mxCell id="0wsUlRYZToiHvtdYw5um-5" value="Verify User" style="rounded=1;whiteSpace=wrap;html=1;fontSize=12;" vertex="1" parent="1">
          <mxGeometry x="401" y="205" width="120" height="40" as="geometry" />
        </mxCell>
        <mxCell id="0wsUlRYZToiHvtdYw5um-8" value="" style="endArrow=classic;html=1;rounded=0;exitX=0.5;exitY=1;exitDx=0;exitDy=0;" edge="1" parent="1" source="LYHglm9Zj9HGhGP9bmGm-9">
          <mxGeometry width="50" height="50" relative="1" as="geometry">
            <mxPoint x="360" y="460" as="sourcePoint" />
            <mxPoint x="91" y="420" as="targetPoint" />
          </mxGeometry>
        </mxCell>
        <mxCell id="0wsUlRYZToiHvtdYw5um-51" style="edgeStyle=orthogonalEdgeStyle;rounded=0;orthogonalLoop=1;jettySize=auto;html=1;" edge="1" parent="1" source="0wsUlRYZToiHvtdYw5um-11" target="0wsUlRYZToiHvtdYw5um-39">
          <mxGeometry relative="1" as="geometry">
            <Array as="points">
              <mxPoint x="370" y="740" />
              <mxPoint x="370" y="920" />
              <mxPoint x="690" y="920" />
            </Array>
          </mxGeometry>
        </mxCell>
        <mxCell id="0wsUlRYZToiHvtdYw5um-11" value="Watch Movies" style="rounded=1;whiteSpace=wrap;html=1;fontSize=12;" vertex="1" parent="1">
          <mxGeometry x="159" y="720" width="120" height="40" as="geometry" />
        </mxCell>
        <mxCell id="0wsUlRYZToiHvtdYw5um-41" style="edgeStyle=orthogonalEdgeStyle;rounded=0;orthogonalLoop=1;jettySize=auto;html=1;" edge="1" parent="1" source="0wsUlRYZToiHvtdYw5um-12" target="0wsUlRYZToiHvtdYw5um-39">
          <mxGeometry relative="1" as="geometry">
            <Array as="points">
              <mxPoint x="760" y="500" />
            </Array>
          </mxGeometry>
        </mxCell>
        <mxCell id="0wsUlRYZToiHvtdYw5um-12" value="Update Password" style="rounded=1;whiteSpace=wrap;html=1;fontSize=12;" vertex="1" parent="1">
          <mxGeometry x="161" y="480" width="120" height="40" as="geometry" />
        </mxCell>
        <mxCell id="0wsUlRYZToiHvtdYw5um-42" style="edgeStyle=orthogonalEdgeStyle;rounded=0;orthogonalLoop=1;jettySize=auto;html=1;entryX=0.737;entryY=0.25;entryDx=0;entryDy=0;entryPerimeter=0;" edge="1" parent="1" source="0wsUlRYZToiHvtdYw5um-13" target="0wsUlRYZToiHvtdYw5um-39">
          <mxGeometry relative="1" as="geometry">
            <Array as="points">
              <mxPoint x="746" y="580" />
            </Array>
          </mxGeometry>
        </mxCell>
        <mxCell id="0wsUlRYZToiHvtdYw5um-13" value="Search" style="rounded=1;whiteSpace=wrap;html=1;fontSize=12;" vertex="1" parent="1">
          <mxGeometry x="161" y="560" width="120" height="40" as="geometry" />
        </mxCell>
        <mxCell id="0wsUlRYZToiHvtdYw5um-55" style="edgeStyle=orthogonalEdgeStyle;rounded=0;orthogonalLoop=1;jettySize=auto;html=1;" edge="1" parent="1" source="0wsUlRYZToiHvtdYw5um-15" target="0wsUlRYZToiHvtdYw5um-39">
          <mxGeometry relative="1" as="geometry">
            <Array as="points">
              <mxPoint x="219" y="940" />
              <mxPoint x="670" y="940" />
            </Array>
          </mxGeometry>
        </mxCell>
        <mxCell id="0wsUlRYZToiHvtdYw5um-15" value="Show Reviews List" style="rounded=1;whiteSpace=wrap;html=1;fontSize=12;" vertex="1" parent="1">
          <mxGeometry x="159" y="880" width="120" height="40" as="geometry" />
        </mxCell>
        <mxCell id="0wsUlRYZToiHvtdYw5um-52" style="edgeStyle=orthogonalEdgeStyle;rounded=0;orthogonalLoop=1;jettySize=auto;html=1;" edge="1" parent="1" source="0wsUlRYZToiHvtdYw5um-16" target="0wsUlRYZToiHvtdYw5um-39">
          <mxGeometry relative="1" as="geometry">
            <Array as="points">
              <mxPoint x="360" y="820" />
              <mxPoint x="360" y="930" />
              <mxPoint x="680" y="930" />
            </Array>
          </mxGeometry>
        </mxCell>
        <mxCell id="0wsUlRYZToiHvtdYw5um-16" value="Show Favorite List" style="rounded=1;whiteSpace=wrap;html=1;fontSize=12;" vertex="1" parent="1">
          <mxGeometry x="161" y="800" width="120" height="40" as="geometry" />
        </mxCell>
        <mxCell id="0wsUlRYZToiHvtdYw5um-34" style="edgeStyle=orthogonalEdgeStyle;rounded=0;orthogonalLoop=1;jettySize=auto;html=1;entryX=0.495;entryY=0;entryDx=0;entryDy=0;entryPerimeter=0;" edge="1" parent="1" source="0wsUlRYZToiHvtdYw5um-17" target="0wsUlRYZToiHvtdYw5um-33">
          <mxGeometry relative="1" as="geometry">
            <Array as="points">
              <mxPoint x="460" y="660" />
            </Array>
          </mxGeometry>
        </mxCell>
        <mxCell id="0wsUlRYZToiHvtdYw5um-17" value="Show Movie Details" style="rounded=1;whiteSpace=wrap;html=1;fontSize=12;" vertex="1" parent="1">
          <mxGeometry x="159" y="640" width="120" height="40" as="geometry" />
        </mxCell>
        <mxCell id="0wsUlRYZToiHvtdYw5um-56" style="edgeStyle=orthogonalEdgeStyle;rounded=0;orthogonalLoop=1;jettySize=auto;html=1;" edge="1" parent="1" source="0wsUlRYZToiHvtdYw5um-19" target="0wsUlRYZToiHvtdYw5um-39">
          <mxGeometry relative="1" as="geometry">
            <Array as="points">
              <mxPoint x="660" y="980" />
            </Array>
          </mxGeometry>
        </mxCell>
        <mxCell id="0wsUlRYZToiHvtdYw5um-19" value="Change Mode" style="rounded=1;whiteSpace=wrap;html=1;fontSize=12;" vertex="1" parent="1">
          <mxGeometry x="159" y="960" width="120" height="40" as="geometry" />
        </mxCell>
        <mxCell id="0wsUlRYZToiHvtdYw5um-45" style="edgeStyle=orthogonalEdgeStyle;rounded=0;orthogonalLoop=1;jettySize=auto;html=1;entryX=0.667;entryY=0.125;entryDx=0;entryDy=0;entryPerimeter=0;" edge="1" parent="1" source="0wsUlRYZToiHvtdYw5um-29" target="0wsUlRYZToiHvtdYw5um-39">
          <mxGeometry relative="1" as="geometry">
            <mxPoint x="720" y="1000" as="targetPoint" />
            <Array as="points">
              <mxPoint x="732" y="740" />
            </Array>
          </mxGeometry>
        </mxCell>
        <mxCell id="0wsUlRYZToiHvtdYw5um-29" value="Add To Favorite" style="rounded=1;whiteSpace=wrap;html=1;fontSize=12;" vertex="1" parent="1">
          <mxGeometry x="440" y="720" width="120" height="40" as="geometry" />
        </mxCell>
        <mxCell id="0wsUlRYZToiHvtdYw5um-47" style="edgeStyle=orthogonalEdgeStyle;rounded=0;orthogonalLoop=1;jettySize=auto;html=1;entryX=0.551;entryY=0.125;entryDx=0;entryDy=0;entryPerimeter=0;" edge="1" parent="1" source="0wsUlRYZToiHvtdYw5um-30" target="0wsUlRYZToiHvtdYw5um-39">
          <mxGeometry relative="1" as="geometry">
            <Array as="points">
              <mxPoint x="709" y="840" />
            </Array>
          </mxGeometry>
        </mxCell>
        <mxCell id="0wsUlRYZToiHvtdYw5um-30" value="Add Review" style="rounded=1;whiteSpace=wrap;html=1;fontSize=12;" vertex="1" parent="1">
          <mxGeometry x="440" y="820" width="120" height="40" as="geometry" />
        </mxCell>
        <mxCell id="0wsUlRYZToiHvtdYw5um-46" style="edgeStyle=orthogonalEdgeStyle;rounded=0;orthogonalLoop=1;jettySize=auto;html=1;entryX=0.611;entryY=0.625;entryDx=0;entryDy=0;entryPerimeter=0;" edge="1" parent="1" source="0wsUlRYZToiHvtdYw5um-31" target="0wsUlRYZToiHvtdYw5um-39">
          <mxGeometry relative="1" as="geometry">
            <Array as="points">
              <mxPoint x="721" y="790" />
            </Array>
          </mxGeometry>
        </mxCell>
        <mxCell id="0wsUlRYZToiHvtdYw5um-31" value="Remove From Favorite" style="rounded=1;whiteSpace=wrap;html=1;fontSize=12;" vertex="1" parent="1">
          <mxGeometry x="440" y="770" width="120" height="40" as="geometry" />
        </mxCell>
        <mxCell id="0wsUlRYZToiHvtdYw5um-49" style="edgeStyle=orthogonalEdgeStyle;rounded=0;orthogonalLoop=1;jettySize=auto;html=1;" edge="1" parent="1" source="0wsUlRYZToiHvtdYw5um-32" target="0wsUlRYZToiHvtdYw5um-39">
          <mxGeometry relative="1" as="geometry">
            <Array as="points">
              <mxPoint x="699" y="890" />
            </Array>
          </mxGeometry>
        </mxCell>
        <mxCell id="0wsUlRYZToiHvtdYw5um-32" value="Delete Review" style="rounded=1;whiteSpace=wrap;html=1;fontSize=12;" vertex="1" parent="1">
          <mxGeometry x="440" y="870" width="120" height="40" as="geometry" />
        </mxCell>
        <mxCell id="0wsUlRYZToiHvtdYw5um-35" style="edgeStyle=orthogonalEdgeStyle;rounded=0;orthogonalLoop=1;jettySize=auto;html=1;entryX=0;entryY=0.75;entryDx=0;entryDy=0;" edge="1" parent="1" source="0wsUlRYZToiHvtdYw5um-33" target="0wsUlRYZToiHvtdYw5um-29">
          <mxGeometry relative="1" as="geometry">
            <Array as="points">
              <mxPoint x="420" y="750" />
            </Array>
          </mxGeometry>
        </mxCell>
        <mxCell id="0wsUlRYZToiHvtdYw5um-36" style="edgeStyle=orthogonalEdgeStyle;rounded=0;orthogonalLoop=1;jettySize=auto;html=1;entryX=0;entryY=0.5;entryDx=0;entryDy=0;" edge="1" parent="1" source="0wsUlRYZToiHvtdYw5um-33" target="0wsUlRYZToiHvtdYw5um-31">
          <mxGeometry relative="1" as="geometry">
            <Array as="points">
              <mxPoint x="410" y="790" />
            </Array>
          </mxGeometry>
        </mxCell>
        <mxCell id="0wsUlRYZToiHvtdYw5um-37" style="edgeStyle=orthogonalEdgeStyle;rounded=0;orthogonalLoop=1;jettySize=auto;html=1;entryX=0;entryY=0.5;entryDx=0;entryDy=0;" edge="1" parent="1" source="0wsUlRYZToiHvtdYw5um-33" target="0wsUlRYZToiHvtdYw5um-30">
          <mxGeometry relative="1" as="geometry">
            <Array as="points">
              <mxPoint x="400" y="840" />
            </Array>
          </mxGeometry>
        </mxCell>
        <mxCell id="0wsUlRYZToiHvtdYw5um-38" style="edgeStyle=orthogonalEdgeStyle;rounded=0;orthogonalLoop=1;jettySize=auto;html=1;entryX=0;entryY=0.5;entryDx=0;entryDy=0;" edge="1" parent="1" source="0wsUlRYZToiHvtdYw5um-33" target="0wsUlRYZToiHvtdYw5um-32">
          <mxGeometry relative="1" as="geometry">
            <Array as="points">
              <mxPoint x="390" y="890" />
            </Array>
          </mxGeometry>
        </mxCell>
        <mxCell id="0wsUlRYZToiHvtdYw5um-33" value="" style="line;strokeWidth=3;fillColor=none;align=right;verticalAlign=middle;spacingTop=-1;spacingLeft=3;spacingRight=3;rotatable=0;labelPosition=right;points=[];portConstraint=eastwest;strokeColor=inherit;fontSize=14;" vertex="1" parent="1">
          <mxGeometry x="362" y="670" width="198" height="8" as="geometry" />
        </mxCell>
        <mxCell id="0wsUlRYZToiHvtdYw5um-40" style="edgeStyle=orthogonalEdgeStyle;rounded=0;orthogonalLoop=1;jettySize=auto;html=1;" edge="1" parent="1" source="0wsUlRYZToiHvtdYw5um-39" target="EA6ZVJ3KCZsDqWAnBXEh-34">
          <mxGeometry relative="1" as="geometry">
            <Array as="points">
              <mxPoint x="699" y="1020" />
              <mxPoint x="699" y="1020" />
            </Array>
          </mxGeometry>
        </mxCell>
        <mxCell id="0wsUlRYZToiHvtdYw5um-39" value="" style="line;strokeWidth=3;fillColor=none;align=right;verticalAlign=middle;spacingTop=-1;spacingLeft=3;spacingRight=3;rotatable=0;labelPosition=right;points=[];portConstraint=eastwest;strokeColor=inherit;fontSize=14;" vertex="1" parent="1">
          <mxGeometry x="600" y="1000" width="198" height="8" as="geometry" />
        </mxCell>
      </root>
    </mxGraphModel>
  </diagram>
</mxfile>
